<svg version="1.1" id="Layer_1" xmlns="http://www.w3.org/2000/svg" xmlns:xlink="http://www.w3.org/1999/xlink" x="0px" y="0px"
	 width="100%" viewBox="0 0 752 720" enable-background="new 0 0 752 720" xml:space="preserve">
<path fill="#000000" opacity="1.000000" stroke="none" 
	d="
M329.575073,65.396225 
	C353.819183,60.652321 377.958649,59.301514 402.046814,60.908211 
	C462.113586,64.914696 516.983521,84.211555 565.384766,120.273918 
	C616.502197,158.360016 652.563660,207.713455 673.234131,268.159729 
	C681.725281,292.990112 686.714905,318.484863 688.380432,344.674622 
	C693.517883,425.459869 670.480774,497.561981 619.339294,559.889587 
	C572.075806,617.490967 510.948334,652.849304 437.434296,666.404968 
	C414.741791,670.589355 391.854828,672.533081 368.883514,671.099243 
	C295.128082,666.495361 230.426422,639.937378 176.089691,589.471008 
	C129.580902,546.275085 99.763031,493.374481 85.630409,431.523224 
	C79.356575,404.065857 76.981346,376.191620 78.934448,348.248138 
	C84.624832,266.834747 116.974503,197.634109 176.666061,141.719009 
	C218.945160,102.114723 269.137085,77.651428 325.680511,65.874886 
	C326.815155,65.638565 327.996002,65.624161 329.575073,65.396225 
M173.236328,579.267334 
	C175.910309,581.773804 178.552170,584.315552 181.262970,586.781494 
	C234.830917,635.511353 298.118134,661.132141 370.096161,665.555664 
	C393.594879,666.999817 417.069031,665.056213 440.123657,660.378235 
	C510.164032,646.166687 569.177429,612.578552 614.630737,557.150452 
	C665.047363,495.670044 687.787598,424.809906 682.791138,345.239166 
	C680.792053,313.402985 673.613403,282.787842 661.550049,253.308487 
	C642.104431,205.789429 612.855469,165.369461 572.714478,133.279282 
	C523.374817,93.835373 467.292969,71.244827 403.936096,67.039749 
	C381.884918,65.576180 359.975128,66.267342 338.256409,69.610687 
	C302.750793,75.076347 269.186279,86.631073 237.792862,104.257866 
	C186.614532,132.993500 146.982010,173.204895 119.387199,224.927994 
	C99.412933,262.367340 87.867569,302.347626 85.051231,344.907715 
	C83.425018,369.482727 84.244949,393.876221 88.638603,417.968506 
	C99.984543,480.183258 128.147675,533.825317 173.236328,579.267334 
z"/>
<path fill="#000000" opacity="1.000000" stroke="none" 
	d="
M168.795990,560.182495 
	C140.657135,528.654053 120.072647,493.195496 107.488403,453.174408 
	C100.375031,430.551971 96.112648,407.396301 94.627701,383.718475 
	C91.309021,330.801636 101.640961,280.588531 126.149879,233.707184 
	C165.038239,159.320435 225.168335,110.307861 305.825439,86.839462 
	C334.776123,78.415817 364.497955,74.502617 394.602448,76.032875 
	C458.838928,79.298126 516.676636,100.182007 566.780212,141.048462 
	C608.558350,175.124374 638.734497,217.631393 656.934143,268.331757 
	C667.149658,296.789886 672.660583,326.224152 673.504150,356.654907 
	C675.503601,428.779175 653.640259,492.900543 608.601624,548.712097 
	C567.182312,600.038696 513.556396,632.858521 449.309906,648.269775 
	C417.068573,656.003784 384.397858,657.946899 351.658447,654.041443 
	C279.378784,645.419128 218.403442,614.093018 168.795990,560.182495 
M485.750122,631.143066 
	C536.797791,611.436035 579.136169,579.884338 611.588196,535.934814 
	C660.629150,469.518982 677.825134,394.903931 663.223083,313.887604 
	C651.046143,246.326019 617.395752,190.301559 564.378357,146.624878 
	C511.358215,102.945976 449.771027,81.973022 381.273895,81.502434 
	C358.942413,81.349007 336.836731,84.477623 315.148041,90.056526 
	C250.563217,106.669456 197.611557,141.211197 157.269913,194.256943 
	C126.737465,234.404465 108.329742,279.757904 102.065041,330.042297 
	C98.347191,359.884064 99.027328,389.533447 104.693192,418.929108 
	C114.178894,468.142883 135.131027,512.015564 167.743469,550.263306 
	C204.347015,593.191711 249.944183,622.270935 303.726501,638.560486 
	C337.542358,648.802551 372.194153,651.705994 407.421021,648.915283 
	C434.166351,646.796448 460.020599,641.072937 485.750122,631.143066 
z"/>
<path fill="#000000" opacity="1.000000" stroke="none" 
	d="
M359.239838,640.138428 
	C336.692993,637.831055 315.053894,633.452209 294.100098,626.043457 
	C233.868469,604.747131 186.293274,567.304138 151.748260,513.564880 
	C128.775360,477.827545 115.193169,438.679901 110.553535,396.426208 
	C104.182205,338.401642 115.015373,283.796753 143.290817,232.752380 
	C174.287643,176.795212 219.686783,136.711731 278.376953,111.664360 
	C302.078278,101.549286 326.939270,95.583443 352.543549,92.578362 
	C403.408630,86.608513 452.408020,94.075233 498.524872,115.827026 
	C578.732422,153.658249 629.639587,216.378052 651.622742,302.293182 
	C657.498657,325.257629 660.042114,348.796661 659.192505,372.506165 
	C656.910461,436.191376 636.092163,493.231781 595.128906,542.119568 
	C551.552429,594.126221 495.827667,625.844421 428.814453,637.365723 
	C405.907043,641.304077 382.865692,642.341125 359.239838,640.138428 
M139.320740,479.251068 
	C160.694275,525.250549 192.268143,562.743530 234.679886,590.461365 
	C291.609253,627.666992 353.968811,642.393494 421.692200,632.819885 
	C477.110260,624.985840 525.895813,602.467407 566.471252,564.170105 
	C635.419556,499.092896 662.862976,418.550659 650.335938,324.854706 
	C644.665283,282.441101 628.129761,243.862778 603.203491,208.943039 
	C573.276123,167.017059 534.288940,136.370300 486.983307,116.545181 
	C449.153900,100.691422 409.678558,93.891914 368.477570,97.039848 
	C345.791290,98.773186 323.623657,102.401299 301.987061,109.340561 
	C252.166092,125.319084 209.875275,153.012604 176.835541,193.457626 
	C128.536514,252.582077 108.002502,320.546875 116.214874,396.783203 
	C119.286247,425.295105 126.805084,452.591095 139.320740,479.251068 
z"/>
<path fill="#000000" opacity="1.000000" stroke="none" 
	d="
M317.030273,409.889038 
	C313.409912,409.712555 312.122131,411.196075 312.187744,414.382446 
	C312.311096,420.371460 312.105438,426.367462 312.242737,432.355835 
	C312.322937,435.853088 311.224213,437.486145 307.399628,437.401428 
	C294.299927,437.111145 295.847198,438.889008 295.812378,426.038483 
	C295.721680,392.584808 295.765594,359.130737 295.774811,325.676819 
	C295.776733,318.679596 295.814362,318.671021 302.560242,318.659973 
	C308.551971,318.650146 314.544250,318.612549 320.535370,318.675781 
	C330.295654,318.778778 338.404846,325.523315 339.265411,335.212646 
	C340.886505,353.464539 340.517395,371.810272 339.583435,390.061676 
	C338.899109,403.434967 331.618958,409.149719 317.030273,409.889038 
M312.218079,384.425049 
	C312.213409,385.591675 312.238678,386.759308 312.198273,387.924683 
	C312.088654,391.088806 311.957825,393.917725 316.663971,393.750092 
	C320.769409,393.603882 323.611725,392.612000 323.621033,387.978882 
	C323.652832,372.146210 323.620850,356.313446 323.633118,340.480713 
	C323.636902,335.602386 320.549438,334.985840 316.600952,334.930969 
	C312.460876,334.873444 312.154419,337.281891 312.170105,340.449554 
	C312.241058,354.782104 312.213837,369.115143 312.218079,384.425049 
z"/>
<path fill="#000000" opacity="1.000000" stroke="none" 
	d="
M380.788818,370.999756 
	C380.787048,360.673065 380.532227,350.837830 380.859955,341.022064 
	C381.156097,332.152557 384.697723,324.816772 393.161682,320.844696 
	C401.389923,316.983276 409.337189,317.704865 416.638794,323.249634 
	C422.859619,327.973602 425.046234,334.749542 425.149109,342.135376 
	C425.357880,357.122345 425.385925,372.117218 425.144836,387.103333 
	C424.948730,399.294495 417.639069,407.815125 406.151367,410.016052 
	C396.814972,411.804840 386.697998,405.912292 382.595001,396.242279 
	C381.209656,392.977325 380.803253,389.507385 380.789764,385.989990 
	C380.771210,381.159973 380.787872,376.329834 380.788818,370.999756 
M408.691864,368.499817 
	C408.684967,359.833710 408.708862,351.167450 408.657013,342.501617 
	C408.634125,338.673370 407.644073,335.259888 402.971466,335.307312 
	C398.342682,335.354309 397.350800,338.744354 397.345520,342.581421 
	C397.325439,357.247101 397.369019,371.912903 397.326141,386.578461 
	C397.314880,390.422058 398.642883,393.383423 402.776978,393.508118 
	C407.259247,393.643311 408.667633,390.492493 408.673065,386.498505 
	C408.680817,380.832214 408.685120,375.165955 408.691864,368.499817 
z"/>
<path fill="#000000" opacity="1.000000" stroke="none" 
	d="
M499.361633,363.512115 
	C499.345886,371.615601 499.404053,379.274323 499.315155,386.931305 
	C499.272736,390.585144 500.483612,393.361511 504.402679,393.540009 
	C508.447876,393.724182 509.616608,390.785248 509.943939,387.275757 
	C510.860291,377.451233 510.888733,377.632599 520.858521,377.614532 
	C525.076416,377.606873 526.257324,379.233826 526.301941,383.226654 
	C526.453247,396.745026 521.493286,405.320251 511.232880,408.554199 
	C498.129028,412.684418 484.672363,404.319824 483.682404,390.606903 
	C482.388336,372.681305 482.539734,354.672729 483.630310,336.734894 
	C484.328003,325.259216 492.571167,318.633270 504.605713,318.663391 
	C516.672607,318.693604 525.146362,325.747070 526.054688,337.113068 
	C526.557068,343.399658 526.142151,349.756561 526.231689,356.080475 
	C526.271729,358.910767 524.762329,359.924072 522.218933,359.971710 
	C516.063171,360.087006 509.907104,360.189026 503.751556,360.314423 
	C501.757965,360.355011 499.548889,360.107819 499.361633,363.512115 
M509.586945,337.259949 
	C507.967529,333.626709 504.991638,333.991760 502.013947,334.850861 
	C499.422607,335.598480 499.178070,337.805756 499.339935,340.070648 
	C499.451782,341.635315 498.805115,343.478943 500.805695,344.420898 
	C505.001526,346.396454 509.928314,342.892242 509.586945,337.259949 
z"/>
<path fill="#000000" opacity="1.000000" stroke="none" 
	d="
M204.215088,409.156281 
	C193.133179,405.303345 187.731644,397.839111 187.695786,386.519318 
	C187.645660,370.698425 187.589935,354.876282 187.736816,339.056549 
	C187.830429,328.973877 194.717728,320.553864 203.814011,318.875854 
	C215.597122,316.702240 225.249588,321.480408 229.293793,331.438568 
	C231.061539,335.791382 230.118271,340.329529 230.302933,344.785980 
	C230.440689,348.111115 230.111511,351.465393 230.393723,354.772247 
	C230.735062,358.771729 228.948700,360.121735 225.217056,360.095612 
	C219.557755,360.055969 213.896149,360.326447 208.237076,360.279449 
	C205.283310,360.254913 203.993683,361.392395 204.026138,364.390961 
	C204.110901,372.216888 204.035278,380.044403 204.074249,387.871033 
	C204.090591,391.154968 205.621948,393.440613 209.055176,393.535126 
	C212.435715,393.628174 214.073700,391.396545 214.594742,388.243988 
	C214.648697,387.917603 214.598801,387.573853 214.654633,387.248016 
	C215.169373,384.243622 213.090820,380.171814 216.156876,378.410950 
	C219.421753,376.535858 223.652924,377.805695 227.463287,377.790833 
	C228.935028,377.785065 229.811691,378.465912 230.240677,380.052429 
	C233.365707,391.609436 227.663391,403.704010 216.860367,408.246429 
	C212.881958,409.919250 208.767838,409.855530 204.215088,409.156281 
M213.713989,343.380615 
	C214.690720,342.513000 214.651657,341.340820 214.652679,340.190765 
	C214.656372,336.086029 212.521667,334.063354 208.551224,334.382111 
	C204.162292,334.734436 203.959610,337.884216 204.057114,341.172394 
	C204.196030,345.858307 207.387360,344.569641 210.091110,344.188446 
	C211.065964,344.050995 212.037735,343.891632 213.713989,343.380615 
z"/>
<path fill="#000000" opacity="1.000000" stroke="none" 
	d="
M277.429718,383.710266 
	C279.711273,392.388489 283.519287,400.221161 284.999664,409.048859 
	C280.077362,410.452972 275.464630,409.896851 270.884460,409.636322 
	C268.830780,409.519501 268.323090,407.745270 267.769531,406.181885 
	C266.389160,402.283386 265.059479,398.366943 263.257263,393.148315 
	C261.560425,398.225555 260.149933,402.024048 259.039948,405.908356 
	C258.234497,408.727020 256.748199,410.050262 253.720123,409.918854 
	C249.756683,409.746826 245.780136,409.876678 241.591599,409.876678 
	C241.338242,406.102173 242.775497,403.401581 243.572388,400.601593 
	C244.709213,396.607269 245.588333,392.426025 247.454681,388.772736 
	C255.287674,373.440063 254.150757,358.391235 247.482468,342.997559 
	C244.275818,335.595032 241.896271,327.776672 240.088654,319.167084 
	C245.341934,318.349152 250.251389,318.587982 255.136902,318.944550 
	C257.224335,319.096924 257.407166,321.192505 257.923584,322.692474 
	C259.537384,327.379761 261.022064,332.111481 262.850037,337.726868 
	C265.973450,332.971619 266.830261,328.258850 268.213501,323.852905 
	C269.393402,320.094604 271.140106,318.249176 275.265656,318.633331 
	C278.699463,318.953125 282.186768,318.698883 285.378571,318.698883 
	C286.939056,320.993469 285.855164,322.663849 285.317291,324.339600 
	C281.560944,336.043213 277.964935,347.803375 273.920410,359.406952 
	C272.292267,364.077972 272.006226,368.312378 273.964874,372.899994 
	C275.391907,376.242493 276.206177,379.846619 277.429718,383.710266 
z"/>
<path fill="#000000" opacity="1.000000" stroke="none" 
	d="
M433.810486,403.021271 
	C434.092896,376.266846 434.451294,349.978577 434.577179,323.689178 
	C434.596344,319.689606 436.010834,318.014038 439.791534,318.712006 
	C443.624146,319.419556 448.548859,316.259247 451.170837,321.830292 
	C451.378326,322.271149 453.326477,321.954803 454.459717,321.888550 
	C469.184540,321.027435 479.709167,332.046844 478.206299,346.631256 
	C477.956512,349.055206 477.121033,350.351044 474.577972,350.288177 
	C472.747772,350.242920 470.915039,350.310791 469.083496,350.305267 
	C462.165375,350.284332 462.071655,350.285736 461.708313,343.338043 
	C461.539154,340.103424 460.264374,338.445923 456.908051,338.308289 
	C453.462830,338.167023 450.818054,339.119232 450.473419,342.898621 
	C450.172058,346.203125 450.346863,349.552734 450.343750,352.882446 
	C450.327606,370.034363 450.201691,387.187592 450.394165,404.337250 
	C450.444519,408.823425 449.140442,410.944214 444.459991,410.332031 
	C443.150116,410.160645 441.798950,410.311157 440.466827,410.301788 
	C433.983093,410.256195 433.962952,410.234131 433.810486,403.021271 
z"/>
<path fill="#000000" opacity="1.000000" stroke="none" 
	d="
M552.485718,322.056824 
	C569.095276,320.408875 579.700500,329.888763 579.296631,345.529449 
	C579.199585,349.287384 577.766418,350.665741 574.201965,350.327148 
	C573.045959,350.217316 571.870544,350.313843 570.704041,350.311951 
	C563.356018,350.300232 563.277405,350.306000 562.704956,342.977753 
	C562.466675,339.928040 561.101379,338.447815 558.049561,338.319458 
	C554.953857,338.189240 552.278015,338.715881 551.544983,342.259583 
	C551.245850,343.705353 551.357361,345.245026 551.355835,346.742004 
	C551.336426,365.739655 551.196777,384.738800 551.413635,403.733856 
	C551.468811,408.562988 550.342346,410.603455 545.053223,410.431580 
	C535.084290,410.107635 535.028320,410.396423 535.091553,400.590332 
	C535.255859,375.105774 535.534485,349.621643 535.583984,324.136993 
	C535.591675,320.164520 536.585938,318.146545 540.884399,318.630798 
	C542.859131,318.853271 544.903625,318.864380 546.873657,318.622498 
	C549.655518,318.280853 551.165894,319.588196 552.485718,322.056824 
z"/>
<path fill="#000000" opacity="1.000000" stroke="none" 
	d="
M356.988037,294.707184 
	C365.211487,294.745728 365.227173,294.745728 365.228973,302.411133 
	C365.235352,329.710846 365.224182,357.010559 365.233032,384.310272 
	C365.235443,391.765289 365.253906,391.776459 372.729126,393.799347 
	C373.728943,394.069916 374.811829,394.316986 374.964661,395.457672 
	C375.540283,399.752960 375.692322,404.089600 374.889130,408.351532 
	C374.556641,410.115784 372.675507,410.219666 371.169678,410.137451 
	C358.482330,409.444702 348.969116,401.432922 348.827301,389.134003 
	C348.481873,359.174927 348.746643,329.209198 348.680176,299.246338 
	C348.666077,292.898529 353.309296,295.185699 356.988037,294.707184 
z"/>
<path fill="#000000" opacity="1.000000" stroke="none" 
	d="
M274.918030,158.908142 
	C266.558624,163.164261 258.783264,167.639664 251.572311,173.079803 
	C250.161499,174.144150 248.050629,176.490295 246.488861,174.150467 
	C244.954758,171.852081 247.936844,170.824249 249.403687,169.801056 
	C275.015320,151.935883 303.411530,140.606308 333.744171,133.676804 
	C355.677765,128.666061 377.934753,127.512863 400.190704,128.939026 
	C428.256561,130.737518 455.266235,137.619064 480.990662,149.257355 
	C494.058289,155.169434 506.939728,161.374023 518.418213,170.103180 
	C519.726074,171.097794 522.450073,171.889465 520.991638,174.128357 
	C519.506714,176.407883 517.723328,174.247223 516.341919,173.345016 
	C505.058472,165.975433 494.032166,158.188797 480.570618,155.001236 
	C449.956848,147.752243 421.192047,152.360703 394.103333,168.145615 
	C393.815704,168.313232 393.496887,168.452713 393.258362,168.675674 
	C387.040497,174.487900 381.591156,173.104065 374.742645,168.610443 
	C359.956146,158.908356 343.371002,153.787094 325.628815,151.991257 
	C308.195343,150.226654 291.527985,152.639145 274.918030,158.908142 
M396.363342,132.295959 
	C362.771088,130.811890 330.195831,135.560349 298.180237,148.349686 
	C327.884247,145.365204 355.145966,150.171677 379.658752,166.678162 
	C383.014618,168.937927 385.481293,168.648468 388.619904,166.467911 
	C397.564606,160.253510 407.389099,155.786560 417.792847,152.571854 
	C434.850891,147.301010 452.254395,146.442627 470.518982,148.567993 
	C446.532990,139.289169 422.359436,133.856140 396.363342,132.295959 
z"/>
<path fill="#000000" opacity="1.000000" stroke="none" 
	d="
M412.761322,602.105042 
	C400.716766,603.328125 389.103668,603.616943 377.446991,603.382935 
	C339.274780,602.616516 303.532196,593.023010 270.119690,574.549316 
	C262.959167,570.590271 256.019409,566.334839 249.383301,561.564331 
	C247.943787,560.529541 246.089081,559.746094 247.021027,557.382324 
	C249.542175,556.392395 250.833481,558.334839 252.406647,559.343384 
	C262.910736,566.077515 273.065247,573.579651 285.352692,576.812683 
	C317.273956,585.211609 347.488464,580.666443 375.445251,563.303162 
	C381.677429,559.432495 385.811951,559.053406 392.204010,563.063904 
	C421.934845,581.717468 453.988251,585.801147 487.468811,575.326904 
	C497.947693,572.048584 507.153259,565.662659 516.094482,559.192566 
	C517.716675,558.018799 519.296814,556.049500 521.984375,557.409546 
	C522.849976,560.412048 520.046143,560.975952 518.548279,562.043213 
	C496.742401,577.580811 472.602173,588.138672 446.885010,595.243774 
	C435.825256,598.299316 424.604919,600.615051 412.761322,602.105042 
M328.901398,583.582336 
	C318.977997,584.811279 309.044037,584.669189 299.103546,583.782715 
	C355.800171,605.389587 412.459137,605.081421 470.021088,583.815491 
	C467.178680,582.890442 465.541290,584.169800 463.730804,584.266235 
	C436.929169,585.693359 411.686981,580.775024 389.128693,565.513123 
	C385.587616,563.117310 383.111420,562.885315 379.449554,565.398071 
	C364.496399,575.658630 347.842529,581.533752 328.901398,583.582336 
z"/>
<path fill="#000000" opacity="1.000000" stroke="none" 
	d="
M510.613708,489.594727 
	C517.030029,483.578827 524.345520,480.349670 532.661438,479.121368 
	C536.867676,478.500122 541.155701,478.183136 544.893982,480.169220 
	C549.841614,482.797821 554.891357,483.086304 560.255066,482.719086 
	C576.133911,481.631897 584.902527,493.804840 583.656677,508.817627 
	C582.197205,526.403870 569.705750,535.917603 555.593994,543.749023 
	C554.541260,544.333252 553.302856,544.716858 552.408203,543.585327 
	C551.175354,542.026184 551.761658,540.405396 552.738464,538.970825 
	C556.443909,533.528748 559.128235,527.593384 560.146118,521.125183 
	C561.870483,510.167694 561.345093,499.557220 553.862061,490.373596 
	C551.897949,487.963165 550.026367,487.489594 546.988892,488.492249 
	C534.618347,492.575745 527.356689,502.266296 520.197998,512.155884 
	C514.047668,520.652466 509.890076,530.407654 503.443573,538.709961 
	C499.568420,543.700745 495.661682,548.717102 490.444214,552.402222 
	C483.453094,557.340088 475.852692,558.826111 467.867340,555.112122 
	C465.224213,553.882812 463.116058,553.892334 460.369080,554.829590 
	C451.187500,557.962830 443.534241,554.602783 441.306335,546.917969 
	C439.741699,541.520996 441.387573,537.107361 445.349426,533.392090 
	C449.242523,529.741272 454.086945,528.001282 459.124817,526.709656 
	C460.512970,526.353821 462.078674,525.536560 463.237579,527.159424 
	C464.185608,528.486877 463.306946,529.688416 462.781219,530.891052 
	C460.220673,536.748291 460.213898,542.416443 464.155548,548.427979 
	C468.616669,545.613586 471.636078,541.681396 474.844940,538.015198 
	C481.338867,530.595703 486.379059,522.129333 491.790619,513.938538 
	C497.397308,505.452393 503.427063,497.304230 510.613708,489.594727 
M493.983307,543.483093 
	C498.739655,538.565613 502.628357,533.048096 506.229523,527.211914 
	C516.392883,510.740753 525.441345,493.161591 545.196167,484.909729 
	C539.521729,480.662201 534.021545,482.718109 528.629700,483.821869 
	C517.264221,486.148468 510.781708,494.720215 504.072388,503.063995 
	C494.670013,514.756836 487.718689,528.141357 478.407135,539.904053 
	C475.355591,543.758911 471.003601,546.499084 468.576782,551.122192 
	C472.483154,553.888428 476.383636,554.096558 480.636749,553.096680 
	C486.211700,551.786072 489.532867,547.478577 493.983307,543.483093 
M579.549561,511.810425 
	C579.581909,508.988220 579.854187,506.144653 579.605164,503.347504 
	C578.506042,491.001099 568.148987,483.653381 556.831848,487.305634 
	C561.738403,494.492859 564.172546,502.326691 564.501648,511.069702 
	C564.831177,519.824219 563.044434,528.009216 559.887939,536.173950 
	C569.049194,530.360535 576.674622,523.533020 579.549561,511.810425 
M452.845795,551.726562 
	C455.380280,551.525574 458.190704,552.522034 460.604340,549.676941 
	C457.148102,543.941833 456.323944,537.570679 458.491333,530.632812 
	C453.655487,531.303223 450.282593,533.173279 447.516968,536.203308 
	C441.428436,542.873779 443.282135,549.204041 452.845795,551.726562 
z"/>
<path fill="#000000" opacity="1.000000" stroke="none" 
	d="
M207.015015,520.008728 
	C208.083633,528.502563 212.247253,535.301697 216.241150,541.780701 
	C214.928329,543.797485 213.446259,543.641174 212.334106,543.006653 
	C199.192337,535.508423 187.301407,526.829651 184.022766,510.715668 
	C181.450851,498.075073 187.890900,485.980438 198.888931,482.407562 
	C203.136612,481.027649 207.530289,481.407745 211.763794,481.897552 
	C215.045181,482.277191 217.828308,481.839996 220.889786,480.770477 
	C233.410797,476.396149 244.690369,479.791656 254.397003,487.867310 
	C265.014557,496.700745 272.054077,508.602173 279.510529,520.035583 
	C285.069183,528.559082 290.906342,536.846375 297.974854,544.201721 
	C299.111267,545.384216 300.367737,546.451416 301.938263,547.916687 
	C309.246033,540.967102 306.131592,533.341248 303.221313,524.882874 
	C311.355377,527.917969 318.863464,529.129883 323.745514,535.450378 
	C327.605682,540.447815 327.793427,545.289307 324.673584,550.269470 
	C321.966919,554.590149 315.925415,557.583435 310.790497,555.930786 
	C305.375153,554.187866 300.662628,554.062317 295.188599,556.135254 
	C288.830048,558.543030 282.559967,556.000488 277.534393,551.845032 
	C270.065674,545.669373 263.624786,538.492249 258.820343,529.934753 
	C253.269623,520.048096 246.979980,510.646667 240.053452,501.648651 
	C235.433533,495.647034 229.446457,491.698944 222.789398,488.417267 
	C218.540115,486.322510 215.457245,487.383209 212.923096,491.065826 
	C206.955719,499.737793 205.364120,509.330780 207.015015,520.008728 
M274.079742,518.390320 
	C267.307678,508.311920 260.807220,497.931610 251.348877,490.111572 
	C243.476044,483.602509 234.221298,481.624695 224.038376,484.157440 
	C231.710373,487.996033 237.968338,493.294678 243.308960,499.797577 
	C250.199478,508.187683 256.187469,517.177490 261.492432,526.623047 
	C266.373657,535.314087 272.835602,542.626343 280.517731,548.881714 
	C286.006012,553.350708 292.784119,553.723450 297.984772,549.863403 
	C288.878235,540.524597 281.107849,530.187317 274.079742,518.390320 
M205.959946,534.544312 
	C206.276779,534.622742 206.629486,534.819336 206.897751,534.737854 
	C207.075043,534.683960 207.302002,534.151245 207.216675,533.968018 
	C204.437149,528.001770 203.077118,521.676453 202.737198,515.158752 
	C202.174805,504.375580 205.036041,494.539062 211.964569,485.881866 
	C193.981033,482.140839 185.136353,496.079224 188.039978,510.899658 
	C190.124451,521.538940 197.098526,528.381531 205.959946,534.544312 
M311.897766,531.127258 
	C310.676514,530.800903 309.111328,530.692383 309.556732,532.424011 
	C311.246490,538.993652 308.955414,544.696167 305.651184,550.378174 
	C309.992828,552.578491 314.123138,552.510620 318.058441,551.124451 
	C323.703339,549.135925 325.319763,542.847412 321.521881,538.154358 
	C319.118744,535.184753 316.305603,532.580322 311.897766,531.127258 
z"/>
<path fill="#000000" opacity="1.000000" stroke="none" 
	d="
M250.466095,216.475342 
	C258.001892,204.303680 264.351501,191.807922 275.060638,182.261642 
	C283.079987,175.113098 291.458466,172.305206 301.470367,177.282166 
	C303.378571,178.230759 304.880127,177.722687 306.680939,177.196472 
	C314.148529,175.014252 321.651093,176.897095 324.895294,181.584045 
	C329.119324,187.686539 327.774567,195.367126 321.431732,200.108337 
	C317.800720,202.822479 313.644531,204.561157 309.179474,205.498291 
	C307.577820,205.834457 305.906586,206.667480 304.618805,204.899414 
	C303.493164,203.354004 304.649078,202.099091 305.207855,200.744064 
	C307.623199,194.887070 307.630707,189.255402 303.642517,183.453354 
	C295.649658,190.318832 289.177887,197.821045 283.718689,206.206650 
	C276.637604,217.083557 269.460327,227.868088 261.295959,238.001968 
	C250.511734,251.387665 233.590012,256.281769 217.621796,250.081284 
	C216.161957,249.514435 214.781754,249.237411 213.260651,249.640457 
	C194.858521,254.516342 180.438614,239.262100 185.050827,219.075592 
	C188.431595,204.278793 199.867493,195.890152 212.334412,188.859024 
	C213.393555,188.261658 214.717560,188.191681 215.587036,189.174103 
	C216.693146,190.423904 215.925491,191.630951 215.106659,192.759842 
	C210.094070,199.670517 207.310379,207.467178 206.678726,215.904953 
	C206.006653,224.882980 207.537979,233.452454 212.914948,241.012604 
	C215.379715,244.478088 218.235229,245.369949 222.373352,243.695038 
	C231.532806,239.987808 238.452484,233.820648 243.849457,225.695663 
	C245.874374,222.647171 248.125824,219.749161 250.466095,216.475342 
M246.160690,227.625427 
	C239.855316,236.082916 232.386917,243.185120 221.874069,247.587997 
	C224.714096,249.002457 226.840897,249.722046 229.242020,249.684387 
	C238.769135,249.535004 247.234741,246.638824 254.234818,240.020889 
	C258.853485,235.654373 262.328430,230.324554 266.203644,225.345428 
	C274.373810,214.847870 280.272247,202.749969 289.024048,192.655457 
	C292.463196,188.688675 296.055573,184.854691 299.628693,180.904388 
	C293.867340,177.186798 286.897125,177.389496 281.528229,181.307678 
	C274.021912,186.785797 268.182678,193.830429 263.397278,201.701065 
	C258.121246,210.378601 253.104019,219.210831 246.160690,227.625427 
M193.785446,209.328018 
	C189.636841,215.246307 187.576797,221.667892 188.252792,229.026001 
	C189.346848,240.934570 200.187088,249.105576 211.103165,245.609772 
	C200.546844,230.062164 200.626801,213.703125 207.949265,196.591095 
	C201.828583,199.507889 198.073807,204.186600 193.785446,209.328018 
M323.647614,189.392029 
	C322.357391,181.174667 313.999054,177.408295 307.702881,182.403793 
	C311.161194,188.238708 310.569183,194.655945 309.588104,202.162262 
	C316.532410,199.844406 321.453156,196.707443 323.647614,189.392029 
z"/>
<path fill="#000000" opacity="1.000000" stroke="none" 
	d="
M443.007141,195.685532 
	C439.735046,190.318649 439.560364,185.306732 443.267853,180.518372 
	C446.541321,176.290573 453.797852,174.288971 459.692352,176.482071 
	C463.501373,177.899231 466.835297,177.857544 470.678009,176.643509 
	C478.360535,174.216385 484.829102,176.951141 490.869141,181.950241 
	C503.131378,192.099258 509.827240,206.221603 518.274780,219.129150 
	C524.950012,229.328583 532.056641,239.158829 543.907654,244.244247 
	C547.559875,245.811432 550.098389,245.367828 552.753235,242.547440 
	C560.029480,234.817352 562.099121,225.321442 561.177429,215.323318 
	C560.416321,207.066620 558.294983,198.945923 552.255798,192.529144 
	C550.866150,191.052673 551.292419,189.490494 553.135498,188.065781 
	C566.114136,196.670929 579.636475,204.903076 582.821594,222.008804 
	C584.558838,231.338852 582.429688,239.798691 575.186951,246.576141 
	C568.655701,252.687912 561.018066,251.006454 553.461670,249.894043 
	C551.966431,249.673920 550.632385,249.382538 549.099121,249.901505 
	C532.076050,255.662994 517.758911,250.979263 505.945801,236.663559 
	C495.631165,224.163757 487.949768,209.855438 477.969604,197.154434 
	C474.177887,192.329010 470.347748,187.529846 465.429352,183.787277 
	C460.112000,188.633301 459.037628,194.409576 462.155212,200.933670 
	C462.846466,202.380249 464.456604,203.786377 462.969452,205.418457 
	C461.422241,207.116470 459.937805,205.253174 458.445648,204.880768 
	C452.515564,203.400787 447.103302,201.015488 443.007141,195.685532 
M479.805389,179.456863 
	C476.396057,179.338440 472.875275,178.527740 469.601868,180.954361 
	C469.944458,181.719742 470.056061,182.450607 470.480255,182.846756 
	C482.698608,194.258286 490.219757,209.144379 499.948700,222.398087 
	C505.618622,230.122192 510.852386,238.418335 519.286926,243.705109 
	C526.713013,248.359756 534.611877,249.964554 544.335205,247.711990 
	C538.282288,244.544510 533.436462,241.666168 529.182251,237.941559 
	C524.885498,234.179688 521.869019,229.320724 518.367493,224.888535 
	C511.640137,216.373184 507.318542,206.259216 500.766693,197.662460 
	C495.257416,190.433685 489.602905,183.090286 479.805389,179.456863 
M558.162598,247.657883 
	C566.538391,248.271225 573.416321,245.607178 577.201050,237.778656 
	C583.705627,224.324280 575.151550,204.119843 561.208923,198.837357 
	C566.823975,214.707535 567.259338,230.146957 556.471313,244.480530 
	C555.325378,246.003036 555.056335,247.182358 558.162598,247.657883 
M460.772156,181.667664 
	C456.124908,178.662628 451.766876,178.712372 447.550201,181.980133 
	C444.818573,184.096970 443.621460,186.966766 444.601990,190.346542 
	C446.004944,195.182281 452.043304,199.657532 457.516052,199.866272 
	C455.725769,193.459702 457.675507,187.757004 460.772156,181.667664 
z"/>
</svg>